<svg width="800" height="800" viewBox="0 0 32 32" id="OBJECT" xmlns="http://www.w3.org/2000/svg" fill="#5243db"><g id="SVGRepo_iconCarrier"><defs><style>.cls-1{fill:#f9003a}</style></defs><path d="M14.2 4a5.62 5.62 0 0 0-5.66.08 1 1 0 0 0-.49.85 5.59 5.59 0 0 0 2.76 4.94 5.37 5.37 0 0 0 2.73.73 5.76 5.76 0 0 0 2.93-.81 1 1 0 0 0 .53-.88A5.62 5.62 0 0 0 14.2 4Z"/><path class="cls-1" d="M17.28 3.29A1 1 0 0 1 18 3h2a1 1 0 0 0 0-2h-2a3 3 0 0 0-3 3v4.93c-.7 6-3.21 6.91-3.23 6.91l.27 1 .25 1c.3-.08 2.36-.73 3.71-4.29 1.35 3.56 3.41 4.21 3.71 4.29l.52-1.94S17.69 15 17 8.93V4a1 1 0 0 1 .28-.71Z"/><path class="cls-1" d="M12.54 15.94c-1.55-.89-3.71-.66-6.06.67a12.67 12.67 0 0 0-4.58 4.28 6.74 6.74 0 1 0 11.67 6.74 12.73 12.73 0 0 0 1.43-6.1c0-2.71-.9-4.69-2.46-5.59Z"/><path d="M12.54 15.94c-1.42-.81-3.33-.68-5.45.35v.52a5 5 0 0 0 7.92 4c-.21-2.31-1.01-4.05-2.47-4.87Z"/><path class="cls-1" d="M30.1 20.89a12.67 12.67 0 0 0-4.58-4.28c-2.35-1.33-4.52-1.61-6.06-.67S17 18.82 17 21.53a12.73 12.73 0 0 0 1.43 6.1 6.74 6.74 0 1 0 11.67-6.74Z"/><path d="M24.91 16.29c-2.12-1-4-1.17-5.45-.35S17.2 18.5 17 20.85a5 5 0 0 0 7.92-4c.08-.22 0-.39-.01-.56Z"/></g></svg>