<svg width="800" height="800" viewBox="0 0 32 32" id="OBJECT" xmlns="http://www.w3.org/2000/svg" fill="#5243db"><g id="SVGRepo_iconCarrier"><defs><style>.cls-1{fill:#e8022c}</style></defs><path class="cls-1" d="M16.42 1.09 16.18 1a1 1 0 0 0-.64.08c-9.24 2.78-8 20.23-8 21a1 1 0 0 0 1 .93h14.89a1 1 0 0 0 1-.93c.05-.75 1.27-18.25-8.01-20.99Z"/><path d="M10.75 15a12 12 0 0 0-5.18 1.17A1 1 0 0 0 5 17a.66.66 0 0 0 0 .14C5 22.59 9.91 27 16 27a11.87 11.87 0 0 0 5.18-1.17 1.07 1.07 0 0 0 .52-.83s0-.11 0-.14C21.71 19.4 16.79 15 10.75 15Z"/><path d="M18 24h-4a1 1 0 0 0-1 1v3a3 3 0 0 0 6 0v-3a1 1 0 0 0-1-1Z"/><path class="cls-1" d="M27 17.05a1 1 0 0 0-.56-.89A12 12 0 0 0 21.25 15c-6 0-11 4.41-11 9.83v.12a1 1 0 0 0 .57.89A11.87 11.87 0 0 0 16.05 27c6 0 11-4.41 11-9.83a.41.41 0 0 0-.05-.12Z"/><path d="M12.73 7.54a1 1 0 0 0-1-1H9.82a18.52 18.52 0 0 0-.8 2h2.71a1 1 0 0 0 1-1ZM21.71 11.46a1 1 0 0 0 0 2h2.39c-.09-.66-.2-1.33-.34-2Z"/></g></svg>