<svg width="800" height="800" viewBox="0 0 32 32" id="OBJECT" xmlns="http://www.w3.org/2000/svg" fill="#5243db"><g id="SVGRepo_iconCarrier"><defs><style>.cls-1{fill:#f9003a}</style></defs><path class="cls-1" d="M26 14.87a1 1 0 0 0-1-.87H7.09a1 1 0 0 0-1 .87c0 .14-1.59 13.4 9.57 16.06l.22.05h.19a1 1 0 0 0 .4-.09C27.57 28.22 26 15 26 14.87Z"/><path d="M16.56 3.11A6.8 6.8 0 0 0 11 2.26a1 1 0 0 0-.7.7 6.76 6.76 0 0 0 1.68 6.63 1.14 1.14 0 0 0 .16.14.94.94 0 0 0 .68.27H16a1 1 0 0 0 1-1V4.05A.19.19 0 0 1 17 4a1 1 0 0 0-.44-.89Z"/><path class="cls-1" d="M16 10a1 1 0 0 1-1-1V4a3 3 0 0 1 3-3h2a1 1 0 0 1 0 2h-2a1 1 0 0 0-1 1v5a1 1 0 0 1-1 1Z"/><path d="M22 8H10a5 5 0 0 0-5 5v2a1 1 0 0 0 1 1h20a1 1 0 0 0 1-1v-2a5 5 0 0 0-5-5Z"/></g></svg>