<svg width="800" height="800" viewBox="0 0 1024 1024" class="icon" xmlns="http://www.w3.org/2000/svg"><g id="SVGRepo_iconCarrier"><path d="m766.316 151.148 48.143-49.265c159.237 155.592 129.73 444.017-65.89 644.27-195.65 200.223-483.307 236.41-642.575 80.82l660.322-675.825zM749.435 286.76a7.158 7.158 0 0 0-.128-10.102 7.163 7.163 0 0 0-10.102.128 7.163 7.163 0 0 0 .128 10.102c2.811 2.75 7.322 2.683 10.102-.128zm-46.003 237.752a7.178 7.178 0 0 0-.128-10.168 7.209 7.209 0 0 0-10.169.097 7.22 7.22 0 0 0 .128 10.2 7.178 7.178 0 0 0 10.169-.129zm-36.926-132.449a14.285 14.285 0 0 0-.225-20.204 14.316 14.316 0 0 0-20.204.226 14.285 14.285 0 0 0 20.43 19.978zM452.25 631.803a7.158 7.158 0 0 0-.128-10.102 7.127 7.127 0 0 0-10.082.108l-.02.02a7.122 7.122 0 0 0 .128 10.071c2.81 2.78 7.321 2.714 10.102-.097zM434.857 746.22a10.742 10.742 0 0 0-.159-15.156 10.706 10.706 0 0 0-15.145.185l-.01.01a10.7 10.7 0 0 0 15.304 14.966l.01-.005zm-118.922-42.998a10.706 10.706 0 0 0-.185-15.145l-.01-.01a10.7 10.7 0 1 0-14.96 15.313 10.742 10.742 0 0 0 15.155-.158z" fill="#f9003a"/><path d="M356.419 946.022c-104.151.006-197.059-35.635-266.066-103.045a22.374 22.374 0 0 1 31.273-32.01c62.213 60.78 145.725 90.184 235.448 90.189 126.843.005 266.138-58.737 375.485-170.64 186.676-191.093 216.397-465.92 66.258-612.623a22.374 22.374 0 1 1 31.283-32.01C912.087 166 950.006 280.95 936.847 409.559 923.89 536.249 862.71 661.345 764.58 761.805c-98.15 100.444-221.793 164.51-348.15 180.408a483.804 483.804 0 0 1-60.011 3.81z" fill="#5243db"/><path d="M105.994 849.352A22.374 22.374 0 0 1 89.99 811.34L798.46 86.246a22.38 22.38 0 0 1 32.005 31.278L121.999 842.61a22.272 22.272 0 0 1-16.005 6.743z" fill="#5243db"/><path d="M345.293 860.877c-76.82.005-147.615-22.257-204.288-65.055a22.374 22.374 0 0 1 26.967-35.722l.005.005c135.199 102.083 350.73 62.807 501.35-91.387 150.84-154.347 185.006-370.867 79.468-503.65a22.374 22.374 0 1 1 34.657-28.318l.379.476c57.754 72.663 81.009 170.302 65.48 274.934-15.396 103.731-67.948 205.957-147.973 287.846-79.934 81.833-180.829 136.73-284.078 154.578a423.352 423.352 0 0 1-71.967 6.293z" fill="#5243db"/><path d="M585.016 544.364a22.38 22.38 0 0 1-15.928-38.093c.015-.016 2.217-2.248 4.915-5.008l4.951-5.079a22.385 22.385 0 0 1 32.082 31.212l-5.017 5.145a2663.919 2663.919 0 0 1-5.064 5.161 22.313 22.313 0 0 1-15.939 6.662zm-16.332 140.405a22.374 22.374 0 0 1-15.816-38.205c.056-.056 1.408-1.408 3.046-3.103 1.854-1.884 3.216-3.307 3.257-3.348a22.38 22.38 0 0 1 32.327 30.95s-1.561 1.633-3.538 3.64a267.753 267.753 0 0 1-3.46 3.528 22.313 22.313 0 0 1-15.816 6.538zM451.098 556.58a22.374 22.374 0 0 1-15.965-38.056l4.081-4.178a672.156 672.156 0 0 0 4.096-4.188 22.374 22.374 0 0 1 32.19 31.094s-1.93 1.996-4.322 4.423l-4.121 4.22a22.328 22.328 0 0 1-15.96 6.686zm-27.305 209.066a22.374 22.374 0 0 1-15.965-38.057l4.081-4.178a672.156 672.156 0 0 0 4.096-4.188 22.374 22.374 0 0 1 32.19 31.094s-1.93 1.996-4.322 4.423l-4.121 4.22a22.308 22.308 0 0 1-15.96 6.686zm-119.465-40.96a22.374 22.374 0 0 1-15.964-38.057l4.08-4.178a672.156 672.156 0 0 0 4.096-4.188 22.374 22.374 0 0 1 32.19 31.094s-1.93 1.996-4.322 4.423l-4.121 4.22a22.308 22.308 0 0 1-15.96 6.686zm137.385-70.825a22.374 22.374 0 0 1-15.965-38.057l4.081-4.178a672.156 672.156 0 0 0 4.096-4.188 22.374 22.374 0 0 1 32.19 31.094s-1.93 1.996-4.322 4.423l-4.121 4.22a22.349 22.349 0 0 1-15.96 6.686zm254.295-110.08a22.374 22.374 0 0 1-15.964-38.057l4.08-4.178a672.156 672.156 0 0 0 4.096-4.188 22.374 22.374 0 0 1 32.19 31.094s-1.93 1.996-4.322 4.423l-4.121 4.22a22.349 22.349 0 0 1-15.96 6.686zm-44.375-136.535a22.374 22.374 0 0 1-15.965-38.057l4.081-4.178a672.156 672.156 0 0 0 4.096-4.188 22.374 22.374 0 0 1 32.19 31.094s-1.93 1.996-4.322 4.423l-4.121 4.22a22.298 22.298 0 0 1-15.96 6.686zm85.335-97.28a22.374 22.374 0 0 1-15.964-38.057l4.08-4.178a672.156 672.156 0 0 0 4.096-4.188 22.374 22.374 0 0 1 32.19 31.094s-1.93 1.996-4.322 4.423l-4.121 4.22a22.308 22.308 0 0 1-15.96 6.686z" fill="#5243db"/></g></svg>