<svg width="800" height="800" viewBox="0 0 1024 1024" class="icon" xmlns="http://www.w3.org/2000/svg"><g id="SVGRepo_iconCarrier"><path d="M574.276 722.849a165.088 165.088 0 1 0 330.176 0 165.088 165.088 0 1 0-330.176 0Z" fill="#02a3e8"/><path d="M759.185 230.813c15.664 11.221 19.277 33.024 8.056 48.689l-18.638 25.99c-11.19 15.666-32.992 19.246-48.657 8.025L508.547 176.402c-15.664-11.221-19.277-32.992-8.056-48.657l18.638-25.99c11.221-15.666 32.992-19.278 48.657-8.057l191.399 137.115z" fill="#FFB578"/><path d="M306.631 554.34c105.817 0 191.59 85.805 191.59 191.622 0 105.85-85.773 191.623-191.59 191.623-105.85 0-191.622-85.773-191.622-191.623 0-105.817 85.772-191.622 191.622-191.622z" fill="#f9003a"/><path d="M306.631 959.963c-118 0-214-96-214-214 0-117.999 96-213.998 214-213.998 117.982 0 213.972 96 213.972 213.997 0 118.001-95.99 214-213.972 214zm0-383.245c-93.32 0-169.244 75.923-169.244 169.241 0 93.32 75.923 169.244 169.244 169.244 93.305 0 169.212-75.923 169.212-169.244 0-93.318-75.907-169.24-169.212-169.24zm432.733 333.597c-103.372 0-187.47-84.098-187.47-187.466s84.098-187.467 187.47-187.467c103.368 0 187.466 84.098 187.466 187.467s-84.098 187.466-187.466 187.466zm0-330.173c-78.692 0-142.713 64.018-142.713 142.71s64.018 142.71 142.713 142.71c78.688 0 142.71-64.018 142.71-142.71s-64.018-142.71-142.71-142.71z" fill="#4F46A3"/><path d="M306.631 574.608a22.378 22.378 0 0 1-22.378-22.378c0-179.167 145.75-324.933 324.9-324.933a22.378 22.378 0 1 1 0 44.756c-154.47 0-280.144 125.686-280.144 280.177a22.378 22.378 0 0 1-22.378 22.378z" fill="#4F46A3"/><path d="M778.19 580.276a22.484 22.484 0 0 1-5.77-.757c-143.138-38.085-228.636-185.533-190.58-328.684a22.378 22.378 0 0 1 43.254 11.496C593.38 381.64 664.633 504.526 783.932 536.268a22.378 22.378 0 0 1-5.742 44.008z" fill="#4F46A3"/><path d="M720.256 342.433c-12.017 0-23.545-3.708-33.34-10.722l-191.4-137.116c-25.667-18.385-31.594-54.219-13.215-79.877l18.644-26a57.423 57.423 0 0 1 46.576-23.92 56.873 56.873 0 0 1 33.302 10.71l191.399 137.118c25.674 18.395 31.604 54.242 13.216 79.913l-18.645 26c-10.68 14.946-28.088 23.894-46.537 23.894zM547.518 109.551a12.404 12.404 0 0 0-10.195 5.237l-18.641 25.997a12.506 12.506 0 0 0 2.9 17.423L712.98 295.327a12.452 12.452 0 0 0 7.276 2.35 12.308 12.308 0 0 0 10.137-5.19l18.664-26.025a12.525 12.525 0 0 0-2.903-17.455L554.755 111.892a12.36 12.36 0 0 0-7.237-2.34zM189.4 757.887a22.378 22.378 0 0 1-22.379-22.379c0-71.198 57.925-129.123 129.123-129.123a22.378 22.378 0 1 1 0 44.757c-46.521 0-84.366 37.845-84.366 84.366a22.378 22.378 0 0 1-22.378 22.379z" fill="#4F46A3"/></g></svg>