<svg width="800" height="800" viewBox="0 0 1024 1024" class="icon" xmlns="http://www.w3.org/2000/svg"><g id="SVGRepo_iconCarrier"><path d="M920.996 271.957c39.93 40.505 39.482 105.722-.991 145.651-40.505 39.962-105.722 39.514-145.683-.99-39.93-40.506-39.482-105.722 1.023-145.652 40.473-39.961 105.69-39.513 145.65.991z" fill="#087aaa"/><path d="m600.954 587.652-59.11-59.942c-3.55-3.58-3.486-9.4.095-12.948l119.628-117.966a9.175 9.175 0 0 1 12.948.064l59.078 59.942 58.887 59.686a9.146 9.146 0 0 1-.096 12.948L672.788 647.402a9.175 9.175 0 0 1-12.947-.064l-58.887-59.686z" fill="#d51062"/><path d="m554.823 633.143 28.324 28.709-.575 81.329-57.896 57.128-81.361-.543-28.325-28.708-28.804-29.22.575-81.33 57.896-57.128 81.361.544z" fill="#f48a34"/><path d="M531.23 135.258c48.848 29.156 64.833 92.39 35.677 141.239-29.156 48.849-92.359 64.801-141.24 35.677-48.816-29.155-64.8-92.39-35.645-141.239 29.124-48.848 92.359-64.801 141.207-35.677z" fill="#d51062"/><path d="m396.352 361.279 72.026 42.966c4.348 2.622 5.755 8.216 3.165 12.564l-86.092 144.276a9.16 9.16 0 0 1-12.564 3.165l-71.994-42.966-72.25-43.126a9.134 9.134 0 0 1-3.197-12.532l86.092-144.277c2.59-4.347 8.216-5.754 12.564-3.164l72.25 43.094z" fill="#f48a34"/><path d="m302.331 597.594 19.917 78.9-41.688 69.852-78.867 19.916-34.623-20.652-35.23-21.035-19.948-78.868 41.687-69.852 78.9-19.949 35.23 21.036z" fill="#087aaa"/><path d="M57.525 951.494a22.378 22.378 0 0 1-19.194-33.852l109.526-183.499a22.375 22.375 0 0 1 30.684-7.746 22.378 22.378 0 0 1 7.746 30.687L76.76 940.584a22.369 22.369 0 0 1-19.236 10.91zm210.161-352.17a22.382 22.382 0 0 1-19.197-33.843l33.184-55.655a22.378 22.378 0 0 1 38.44 22.922l-33.185 55.655a22.362 22.362 0 0 1-19.242 10.92zm128.666-215.65c-12.36 0-22.378-10.004-22.378-22.363a22.474 22.474 0 0 1 3.165-11.503l29.315-49.104a22.378 22.378 0 1 1 38.43 22.944l-29.053 48.67a22.382 22.382 0 0 1-19.479 11.355zm134.855-226.035a22.382 22.382 0 0 1-19.197-33.845l27.653-46.355a22.382 22.382 0 0 1 38.44 22.931l-27.654 46.355a22.378 22.378 0 0 1-19.242 10.914z" fill="#4f41c8"/><path d="M478.359 349.105a125.386 125.386 0 0 1-64.146-17.708c-59.37-35.456-78.832-112.579-43.407-171.932 22.48-37.708 63.768-61.141 107.748-61.141a125.338 125.338 0 0 1 64.136 17.71c59.383 35.445 78.865 112.57 43.433 171.93-22.509 37.714-63.8 61.141-107.764 61.141zm.195-206.021c-28.296 0-54.852 15.064-69.309 39.312-22.787 38.178-10.268 87.774 27.9 110.565a80.6 80.6 0 0 0 41.217 11.387c28.718 0 54.635-14.699 69.331-39.322 22.782-38.167 10.253-87.764-27.93-110.555a80.575 80.575 0 0 0-41.209-11.387zM377.583 587.926a31.54 31.54 0 0 1-16.15-4.453l-144.258-86.099a31.336 31.336 0 0 1-14.411-19.28 31.266 31.266 0 0 1 3.459-23.92l86.102-144.292a31.672 31.672 0 0 1 27.084-15.374 31.568 31.568 0 0 1 16.15 4.45l144.287 86.067c14.923 8.996 19.782 28.367 10.927 43.235L404.67 572.55a31.672 31.672 0 0 1-27.087 15.376zM251.456 465.712l121.555 72.55 72.545-121.574-121.575-72.519-72.525 121.543zm-49.763 322.929a22.388 22.388 0 0 1-11.464-3.159l-69.862-41.694a22.362 22.362 0 0 1-10.22-13.724l-19.95-78.868a22.369 22.369 0 0 1 2.478-16.956l41.688-69.856a22.375 22.375 0 0 1 13.73-10.226l78.9-19.95a22.353 22.353 0 0 1 16.96 2.482l69.842 41.68a22.369 22.369 0 0 1 10.233 13.744l19.917 78.903a22.382 22.382 0 0 1-2.48 16.944l-41.688 69.852a22.372 22.372 0 0 1-13.737 10.23l-78.868 19.917a22.314 22.314 0 0 1-5.48.68zm-50.428-78.532 53.931 32.186 60.898-15.38 32.187-53.932-15.38-60.926-53.932-32.184-60.924 15.403-32.186 53.932 15.406 60.9zm111.588 233.39a22.378 22.378 0 0 1-15.716-38.309l152.14-150.06a22.378 22.378 0 0 1 31.429 31.861l-152.14 150.06a22.298 22.298 0 0 1-15.713 6.448zm291.973-287.977a22.378 22.378 0 0 1-15.713-38.312l46.72-46.083a22.391 22.391 0 0 1 31.649 0 22.385 22.385 0 0 1 0 31.65l-.704.702-46.243 45.601a22.302 22.302 0 0 1-15.71 6.442zm178.77-176.341a22.375 22.375 0 0 1-15.715-38.306l40.725-40.185a22.372 22.372 0 0 1 31.643.211 22.375 22.375 0 0 1-.211 31.646l-40.725 40.185a22.302 22.302 0 0 1-15.716 6.449zm187.4-184.845a22.375 22.375 0 0 1-15.716-38.306l38.43-37.915a22.372 22.372 0 0 1 31.643.211 22.375 22.375 0 0 1-.211 31.646l-38.43 37.916a22.302 22.302 0 0 1-15.716 6.448z" fill="#4f41c8"/><path d="M847.665 469.67c-33.817 0-65.523-13.258-89.276-37.334-48.542-49.245-47.98-128.78 1.246-177.303 23.59-23.293 54.853-36.125 88.02-36.125 33.814 0 65.518 13.257 89.271 37.337 48.535 49.232 47.992 128.764-1.205 177.297-23.613 23.295-54.888 36.128-88.056 36.128zm-.01-206.005a80.076 80.076 0 0 0-56.588 23.228c-31.662 31.212-32.02 82.356-.809 114.018 15.269 15.476 35.659 24.002 57.407 24.002a80.153 80.153 0 0 0 56.624-23.235c31.633-31.208 31.978-82.352.767-114.011-15.268-15.476-35.655-24.002-57.4-24.002zM666.34 672.424a31.31 31.31 0 0 1-22.391-9.332l-118.04-119.67a31.23 31.23 0 0 1-9.069-22.394 31.397 31.397 0 0 1 9.354-22.167L645.858 380.86a31.298 31.298 0 0 1 22.15-9.086 31.326 31.326 0 0 1 22.405 9.329l118.004 119.67a31.256 31.256 0 0 1 9.082 22.343 31.314 31.314 0 0 1-9.424 22.282L688.51 663.332a31.451 31.451 0 0 1-22.17 9.092zm-99.273-151.006 99.407 100.78 100.786-99.412-99.382-100.782-100.811 99.414zm-42.391 301.27h-.15l-81.362-.544a22.385 22.385 0 0 1-15.78-6.662l-57.138-57.934a22.382 22.382 0 0 1-6.442-15.87l.576-81.326a22.388 22.388 0 0 1 6.659-15.77l57.896-57.129c4.223-4.168 9.968-6.365 15.866-6.451l81.361.543a22.388 22.388 0 0 1 15.787 6.67l57.125 57.92a22.398 22.398 0 0 1 6.448 15.876l-.575 81.326a22.4 22.4 0 0 1-6.66 15.77l-57.895 57.13a22.366 22.366 0 0 1-15.716 6.45zm-71.94-45.24 62.822.42 44.702-44.112.445-62.79-44.111-44.728-62.816-.419-44.702 44.111-.445 62.797 44.105 44.721z" fill="#4f41c8"/></g></svg>