<svg width="800" height="800" viewBox="0 0 1024 1024" class="icon" xmlns="http://www.w3.org/2000/svg"><g id="SVGRepo_iconCarrier"><path d="M629.043 547.738a8.52 8.52 0 1 1 0 17.05 8.52 8.52 0 0 1 0-17.05zm8.5 204.595c0 9.42-7.63 17.1-17.05 17.1s-17.05-7.68-17.05-17.1a17.055 17.055 0 0 1 34.1 0zM488.908 866.099a20.87 20.87 0 0 1-21.248-20.48 20.88 20.88 0 0 1 20.48-20.48c11.52-.153 21.043 9.011 21.197 20.48a20.736 20.736 0 0 1-20.43 20.48zM372.992 694.016a25.702 25.702 0 1 0 51.405 0 25.702 25.702 0 1 0-51.405 0ZM483.482 585.677c12.441 0 22.579 10.137 22.579 22.579a22.63 22.63 0 0 1-22.58 22.63c-12.492 0-22.63-10.137-22.63-22.63a22.63 22.63 0 0 1 22.63-22.58z" fill="#f9003a"/><path d="M688.794 534.22 669.44 952.679H346.06l-21.145-458.035a76.37 76.37 0 0 0 1.024 1.639c11.367 17.92 26.983 42.393 59.597 42.393 32.614 0 48.18-24.473 59.546-42.342 10.496-16.538 14.899-21.658 21.81-21.658 6.964 0 11.367 5.12 21.812 21.658 11.366 17.869 26.931 42.342 59.546 42.342 32.665 0 48.281-24.525 59.648-42.393 10.29-16.23 14.899-21.607 21.76-21.607 6.963 0 11.315 5.12 21.81 21.607 8.398 13.26 19.098 30.105 37.326 37.939zm-28.877 22.017c0-16.999-13.824-30.874-30.874-30.874s-30.925 13.875-30.925 30.874c0 17.05 13.876 30.925 30.925 30.925s30.874-13.876 30.874-30.925zm0 196.096c0-21.709-17.664-39.424-39.373-39.424-21.76 0-39.475 17.715-39.475 39.424 0 21.76 17.715 39.424 39.475 39.424 21.709 0 39.373-17.664 39.373-39.424zm-128.154 93.286c0-23.808-19.405-43.213-43.264-43.213-23.808 0-43.213 19.405-43.213 43.213 0 23.86 19.405 43.264 43.213 43.264 23.86 0 43.264-19.405 43.264-43.264zm0-237.363c0-26.624-21.657-48.282-48.281-48.282S435.2 581.632 435.2 608.256c0 26.624 21.658 48.282 48.282 48.282s48.281-21.658 48.281-48.282zm-84.326 85.76c0-26.88-21.863-48.742-48.743-48.742s-48.742 21.862-48.742 48.742 21.862 48.742 48.742 48.742 48.743-21.862 48.743-48.742z" fill="#f9003a"/><path d="M629.043 525.363c17.05 0 30.874 13.875 30.874 30.874 0 17.05-13.824 30.925-30.874 30.925s-30.925-13.876-30.925-30.925c0-16.999 13.876-30.874 30.925-30.874zm13.875 30.874a13.911 13.911 0 0 0-13.875-13.824 13.855 13.855 0 1 0 0 27.699c7.629 0 13.824-6.195 13.875-13.875zm-22.374 156.672c21.709 0 39.373 17.715 39.373 39.424 0 21.76-17.664 39.424-39.373 39.424-21.76 0-39.475-17.664-39.475-39.424 0-21.709 17.715-39.424 39.475-39.424zm-.051 59.238c10.957 0 19.814-8.857 19.814-19.814 0-10.906-8.857-19.815-19.814-19.815a19.866 19.866 0 0 0-19.815 19.815c0 10.957 8.91 19.814 19.815 19.814z" fill="#5243db"/><path d="M629.043 564.787a8.52 8.52 0 0 0 0-17.05 8.52 8.52 0 1 0 0 17.05zm0-22.374c7.629 0 13.824 6.195 13.875 13.824a13.921 13.921 0 0 1-13.875 13.875 13.855 13.855 0 0 1 0-27.7zm-25.6 209.92c0 9.42 7.629 17.1 17.05 17.1s17.05-7.68 17.05-17.1-7.63-17.05-16.999-17.05c-9.472 0-17.1 7.629-17.1 17.05zm-2.765 0a19.866 19.866 0 0 1 19.815-19.815c10.957 0 19.814 8.91 19.814 19.815 0 10.957-8.857 19.814-19.814 19.814-10.906 0-19.815-8.857-19.815-19.814z" fill="#f9003a"/><path d="M585.626 35.584c-.359.46-.717.922-1.024 1.434a5.299 5.299 0 0 1 1.024-1.434zm-97.127 766.822c23.86 0 43.264 19.405 43.264 43.213 0 23.86-19.405 43.264-43.264 43.264-23.808 0-43.213-19.405-43.213-43.264 0-23.808 19.405-43.213 43.213-43.213zm21.914 43.213c0-12.032-9.83-21.862-21.914-21.862a21.914 21.914 0 0 0-21.862 21.862c0 12.083 9.83 21.914 21.862 21.914 12.083 0 21.914-9.83 21.914-21.914zm-26.931-285.645c26.624 0 48.281 21.658 48.281 48.282 0 26.624-21.657 48.282-48.281 48.282S435.2 634.88 435.2 608.256c0-26.624 21.658-48.282 48.282-48.282zm25.856 48.282c0-14.285-11.572-25.856-25.856-25.856s-25.908 11.571-25.908 25.856 11.623 25.907 25.908 25.907 25.856-11.622 25.856-25.907z" fill="#5243db"/><path d="M488.14 825.14a20.88 20.88 0 0 0-20.48 20.48c.206 11.52 9.729 20.684 21.249 20.48a20.736 20.736 0 0 0 20.429-20.48c-.154-11.47-9.677-20.634-21.197-20.48zm-21.503 20.48a21.914 21.914 0 0 1 21.862-21.863c12.083 0 21.914 9.83 21.914 21.862 0 12.083-9.83 21.914-21.914 21.914-12.032 0-21.862-9.83-21.862-21.914z" fill="#f9003a"/><path d="M457.574 608.256c0-14.285 11.623-25.856 25.908-25.856s25.856 11.571 25.856 25.856-11.572 25.907-25.856 25.907-25.908-11.622-25.908-25.907zm25.908-22.58a22.63 22.63 0 0 0-22.63 22.58c0 12.493 10.137 22.63 22.63 22.63a22.63 22.63 0 0 0 22.579-22.63c0-12.442-10.138-22.58-22.58-22.58zm-84.788 59.598c26.88 0 48.743 21.862 48.743 48.742s-21.863 48.742-48.743 48.742-48.742-21.862-48.742-48.742 21.862-48.742 48.742-48.742zm26.368 48.742c0-14.592-11.776-26.368-26.368-26.368a26.368 26.368 0 1 0 0 52.736 26.368 26.368 0 0 0 26.368-26.368z" fill="#5243db"/><path d="M372.992 694.016c0 14.182 11.52 25.702 25.702 25.702 14.183 0 25.703-11.52 25.703-25.702s-11.52-25.702-25.703-25.702c-14.182 0-25.702 11.52-25.702 25.702zm52.07 0a26.368 26.368 0 1 1-52.736 0 26.368 26.368 0 0 1 26.368-26.368c14.592 0 26.368 11.776 26.368 26.368z" fill="#5243db"/><path d="M776.346 250.726H558.49l60.979-179.353H723.66c12.339 0 22.374-9.984 22.374-22.375 0-12.339-10.035-22.374-22.374-22.374H603.443c-7.321 0-13.824 3.533-17.817 8.96-.359.46-.717.922-1.024 1.434-.82 1.177-1.434 2.457-1.946 3.788a7.877 7.877 0 0 0-.41.973l-70.963 208.743c0 .05-.051.153-.051.204H242.381c-.615 0-1.28.052-1.895.103-12.339 1.024-21.452 11.878-20.377 24.217l7.833 90.983a22.308 22.308 0 0 0 22.272 20.429h24.884l3.072 65.996 24.166 523.623a22.405 22.405 0 0 0 22.374 21.35h366.08c11.93 0 21.812-9.42 22.375-21.35l21.248-459.725 5.99-129.894h27.802c11.571 0 21.248-8.807 22.272-20.378l8.14-90.982a26.07 26.07 0 0 0 .103-1.997c0-12.34-10.035-22.375-22.374-22.375zM669.44 952.678H346.06l-21.145-458.035a76.37 76.37 0 0 0 1.024 1.639c11.367 17.92 26.983 42.393 59.597 42.393s48.18-24.473 59.546-42.342c10.496-16.538 14.899-21.658 21.81-21.658 6.964 0 11.367 5.12 21.812 21.658 11.366 17.869 26.931 42.342 59.546 42.342 32.665 0 48.281-24.525 59.648-42.393 10.29-16.23 14.899-21.607 21.76-21.607 6.963 0 11.315 5.12 21.81 21.607 8.398 13.26 19.098 30.105 37.326 37.939L669.44 952.678zm78.285-610.97h-28.672c-11.981 0-21.811 9.422-22.375 21.351l-5.222 112.691c-.666-1.075-1.434-2.252-2.202-3.481-11.366-17.869-26.93-42.343-59.596-42.343-32.615 0-48.18 24.474-59.546 42.343-10.496 16.486-14.848 21.657-21.862 21.657-6.861 0-11.47-5.427-21.76-21.606-11.367-17.92-26.932-42.394-59.597-42.394-32.615 0-48.18 24.474-59.546 42.394-10.342 16.18-14.95 21.606-21.811 21.606-6.963 0-11.315-5.12-21.811-21.657-5.683-8.909-12.39-19.507-21.811-27.853-5.581-4.966-12.084-9.165-19.866-11.725l-3.226-69.632a22.39 22.39 0 0 0-22.323-21.35h-25.753l-3.994-46.234h485.12l-4.147 46.234z" fill="#5243db"/></g></svg>