<svg width="800" height="800" viewBox="0 0 32 32" id="OBJECT" xmlns="http://www.w3.org/2000/svg" fill="#5243db"><g id="SVGRepo_iconCarrier"><path d="M8.32 3.34a1 1 0 0 0-.88.51 7.24 7.24 0 0 0 6.24 10.81 1 1 0 0 0 .87-.51A7.24 7.24 0 0 0 8.32 3.34ZM24.56 3.85a1 1 0 0 0-.87-.51 7.24 7.24 0 0 0-6.24 10.81 1 1 0 0 0 .87.51 7.24 7.24 0 0 0 6.24-10.81Z"/><path d="M16.51 1.14a1 1 0 0 0-1 0 9.12 9.12 0 0 0 0 15.72 1 1 0 0 0 1 0 9.12 9.12 0 0 0 0-15.72Z"/><path d="M26.11 13.8A6.09 6.09 0 0 0 21 11H11a6.09 6.09 0 0 0-5.14 2.8 5.67 5.67 0 0 0-.67 4.6c1 3.43 3.67 9.61 10.38 12.52a1 1 0 0 0 .8 0c6.74-2.92 9.41-9.09 10.41-12.52a5.67 5.67 0 0 0-.67-4.6Z" style="fill:#f9003a"/><path d="M10 17.69a1 1 0 0 1-1-1v-.5a1 1 0 1 1 2 0v.5a1 1 0 0 1-1 1ZM16 17.69a1 1 0 0 1-1-1v-.5a1 1 0 1 1 2 0v.5a1 1 0 0 1-1 1ZM22 17.69a1 1 0 0 1-1-1v-.5a1 1 0 1 1 2 0v.5a1 1 0 0 1-1 1ZM13 22.25a1 1 0 0 1-1-1v-.5a1 1 0 0 1 2 0v.5a1 1 0 0 1-1 1ZM19 22.25a1 1 0 0 1-1-1v-.5a1 1 0 0 1 2 0v.5a1 1 0 0 1-1 1ZM16 26.81a1 1 0 0 1-1-1v-.5a1 1 0 0 1 2 0v.5a1 1 0 0 1-1 1Z"/></g></svg>