<svg width="40" height="40" viewBox="0 0 40 40" fill="none" xmlns="http://www.w3.org/2000/svg">
<rect x="0.5" y="0.5" width="39" height="39" rx="9.5" stroke="#AE1332"/>
<g opacity="0.8">
<path d="M22.6399 11.4799C22.8199 11.4799 23 11.4799 23.36 11.4799V14.1799C23.18 14.1799 22.82 14.1799 22.46 14.1799C22.1 14.1799 21.74 14.1799 21.56 14.3599C21.38 14.5399 21.3799 14.7199 21.3799 15.1399C21.3799 15.4999 21.3799 15.7399 21.3799 16.0999H23.36V18.3799H21.3799V28.2799H18.32V18.3199H16.7V16.0399H18.32V15.2599C18.32 13.9399 18.5 12.9799 18.86 12.5599C19.4 11.7799 20.48 11.4199 22.1 11.4199C22.28 11.4799 22.4599 11.4799 22.6399 11.4799Z" fill="#AE1332"/>
</g>
</svg>
