<!DOCTYPE svg PUBLIC "-//W3C//DTD SVG 1.1//EN" "http://www.w3.org/Graphics/SVG/1.1/DTD/svg11.dtd">

<!-- Uploaded to: SVG Repo, www.svgrepo.com, Transformed by: SVG Repo Mixer Tools -->
<svg width="800px" height="800px" viewBox="0 0 32 32" id="OBJECT" xmlns="http://www.w3.org/2000/svg" fill="#f9003a" stroke="#f9003a">

<g id="SVGRepo_bgCarrier" stroke-width="0"/>

<g id="SVGRepo_tracerCarrier" stroke-linecap="round" stroke-linejoin="round"/>

<g id="SVGRepo_iconCarrier">

<defs>

<style>.cls-1{fill:#5243db;}</style>

</defs>

<title/>

<path d="M16.82,2.28a6.75,6.75,0,0,0-5.86-1,1,1,0,0,0-.7.69,6.8,6.8,0,0,0,1.23,6.12,1,1,0,0,0,.7.37h.07a1,1,0,0,0,.68-.26A4.52,4.52,0,0,1,16,7a1,1,0,0,0,1-1V4a1,1,0,0,1,.12-.45A1,1,0,0,0,16.82,2.28Z"/>

<path d="M16,7a1,1,0,0,1-1-1V4a3,3,0,0,1,3-3h1a1,1,0,0,1,0,2H18a1,1,0,0,0-1,1V6A1,1,0,0,1,16,7Z"/>

<path class="cls-1" d="M24.86,18l-.71-.74a5.68,5.68,0,0,1-1.59-3.94V11.56a6.56,6.56,0,0,0-13.12,0v1.75a5.67,5.67,0,0,1-1.58,3.94L7.14,18a7.69,7.69,0,0,0,5.55,13h6.62a7.69,7.69,0,0,0,5.55-13Z"/>

</g>

</svg>