<svg width="40" height="40" viewBox="0 0 40 40" fill="none" xmlns="http://www.w3.org/2000/svg">
<rect x="0.5" y="0.5" width="39" height="39" rx="9.5" stroke="#AE1332"/>
<g opacity="0.8">
<path fill-rule="evenodd" clip-rule="evenodd" d="M26.1801 12.4999C25.1601 12.4399 23.0601 12.3799 19.8801 12.3799H19.4601C16.4001 12.3799 14.3601 12.4399 13.3401 12.5599C11.9601 12.6799 11.0001 13.0399 10.4601 13.5199C9.98012 13.9399 9.62013 14.7199 9.50013 15.7399C9.44013 16.3999 9.38013 17.7799 9.38013 19.8799V20.1799C9.38013 22.1599 9.44012 23.5399 9.56012 24.1999C9.74012 25.1599 10.0401 25.8799 10.6401 26.2999C11.2401 26.7799 12.2601 27.0799 13.7001 27.1999C14.7201 27.2599 16.8201 27.3199 20.0001 27.3199H20.4201C23.4801 27.3199 25.5201 27.2599 26.5401 27.1399C27.9201 27.0199 28.8801 26.6599 29.4201 26.1799C29.9001 25.7599 30.2601 24.9799 30.3801 23.9599C30.4401 23.2999 30.5001 21.9199 30.5001 19.8199V19.5199C30.5001 17.5399 30.4401 16.1599 30.3201 15.4999C30.1401 14.5399 29.8401 13.8199 29.2401 13.3999C28.6401 12.9199 27.6201 12.6199 26.1801 12.4999ZM23.8401 19.8799L17.2401 23.8399V15.9199L23.8401 19.8799Z" fill="#AE1332"/>
</g>
</svg>
