<!DOCTYPE svg PUBLIC "-//W3C//DTD SVG 1.1//EN" "http://www.w3.org/Graphics/SVG/1.1/DTD/svg11.dtd">

<!-- Uploaded to: SVG Repo, www.svgrepo.com, Transformed by: SVG Repo Mixer Tools -->
<svg width="800px" height="800px" viewBox="0 0 32 32" id="OBJECT" xmlns="http://www.w3.org/2000/svg" fill="#f9003a">

<g id="SVGRepo_bgCarrier" stroke-width="0"/>

<g id="SVGRepo_tracerCarrier" stroke-linecap="round" stroke-linejoin="round"/>

<g id="SVGRepo_iconCarrier">

<defs>

<style>.cls-1{fill:#5243db;}</style>

</defs>

<title/>

<rect class="cls-1" height="18" rx="3.67" ry="3.67" width="10" x="21" y="9"/>

<rect height="22" rx="4.33" ry="4.33" width="12" x="15" y="7"/>

<rect class="cls-1" height="18" rx="3.67" ry="3.67" width="10" x="1" y="9"/>

<path d="M16,7a1,1,0,0,1-1-1V4a3,3,0,0,1,3-3h1a1,1,0,0,1,0,2H18a1,1,0,0,0-1,1V6A1,1,0,0,1,16,7Z"/>

<rect height="22" rx="4.33" ry="4.33" width="12" x="5" y="7"/>

<rect class="cls-1" height="26" rx="5" ry="5" width="14" x="9" y="5"/>

</g>

</svg>